<svg xmlns="http://www.w3.org/2000/svg"  viewBox="0 0 100 100" width="100px" height="100px" baseProfile="basic"><path fill="#ef9922" d="M81.95,74.875c0,3.902-3.174,7.074-7.076,7.074H25.125c-3.902,0-7.075-3.174-7.075-7.074v-49.75 c0-3.901,3.174-7.076,7.075-7.076h49.749c3.902,0,7.076,3.174,7.076,7.076V74.875z"/><path fill="#181921" d="M19.1,25.126c0-3.322,2.703-6.025,6.026-6.025h49.75c3.322,0,6.025,2.703,6.025,6.025v49.749 c0,3.323-2.703,6.026-6.025,6.026h-49.75c-3.323,0-6.026-2.703-6.026-6.026L19.1,25.126 M17,25.126v49.749 C17,79.363,20.637,83,25.125,83h49.75C79.362,83,83,79.363,83,74.875v-49.75C83,20.638,79.362,17,74.874,17H25.125 C20.637,17,17,20.638,17,25.126L17,25.126z"/><path fill="#181921" d="M33.407,77.75c0,0.207-0.168,0.375-0.375,0.375h-7.047c-2.267,0-4.11-1.844-4.11-4.11V48.407 c0-0.207,0.168-0.375,0.375-0.375s0.375,0.168,0.375,0.375v25.608c0,1.853,1.508,3.36,3.36,3.36h7.045 C33.238,77.375,33.407,77.543,33.407,77.75z"/><path fill="#181921" d="M59.625,77.75c0,0.207-0.168,0.375-0.375,0.375H36.781c-0.207,0-0.375-0.168-0.375-0.375 s0.168-0.375,0.375-0.375H59.25C59.457,77.375,59.625,77.543,59.625,77.75z"/><path fill="#181921" d="M78.125,72.812v1.203c0,2.267-1.843,4.11-4.11,4.11H62.282c-0.207,0-0.375-0.168-0.375-0.375 s0.168-0.375,0.375-0.375h11.733c1.853,0,3.36-1.508,3.36-3.36v-1.202c0-0.207,0.168-0.375,0.375-0.375 S78.125,72.605,78.125,72.812z"/><path fill="#181921" d="M78.125,25.985V66.75c0,0.207-0.168,0.375-0.375,0.375s-0.375-0.168-0.375-0.375V25.985 c0-1.853-1.507-3.36-3.36-3.36H48.782c-0.207,0-0.375-0.168-0.375-0.375s0.168-0.375,0.375-0.375h25.233 C76.282,21.875,78.125,23.718,78.125,25.985z"/><path fill="#181921" d="M45.032,22.25c0,0.207-0.168,0.375-0.375,0.375H27.094c-0.207,0-0.375-0.168-0.375-0.375 s0.168-0.375,0.375-0.375h17.563C44.863,21.875,45.032,22.043,45.032,22.25z"/><path fill="#181921" d="M22.625,31.062v13.97c0,0.207-0.168,0.375-0.375,0.375s-0.375-0.168-0.375-0.375V31.063 c0-0.207,0.168-0.375,0.375-0.375S22.625,30.855,22.625,31.062z"/><path fill="#e0decf" d="M38.419,63.031l-6.589,3.611c-0.492,0.27-1.036-0.261-0.779-0.76l3.479-6.741l31.997-31.997 c1.074-1.074,2.815-1.074,3.889,0v0c1.074,1.074,1.074,2.815,0,3.889L38.419,63.031z"/><path fill="#181921" d="M31.555,67.214c-0.271,0-0.539-0.104-0.745-0.305c-0.339-0.331-0.42-0.835-0.204-1.256l3.57-6.864 l31.997-31.997c1.229-1.229,3.369-1.228,4.596,0c0.614,0.614,0.952,1.43,0.952,2.298s-0.338,1.684-0.952,2.298L38.659,63.47 l-6.589,3.611C31.907,67.17,31.73,67.214,31.555,67.214z M34.938,59.441l-3.443,6.671l0.334,0.53l-0.24-0.438l6.526-3.577 l31.946-31.946c0.425-0.425,0.659-0.99,0.659-1.591s-0.234-1.166-0.659-1.591c-0.849-0.849-2.331-0.851-3.182,0L34.938,59.441z"/><path fill="#181921" d="M35.944,64.592c-0.128,0-0.256-0.049-0.354-0.146l-2.64-2.641c-0.195-0.195-0.195-0.512,0-0.707 s0.512-0.195,0.707,0l2.64,2.641c0.195,0.195,0.195,0.512,0,0.707C36.2,64.543,36.072,64.592,35.944,64.592z"/><path fill="#181921" d="M65.643,33.479c-0.128,0-0.256-0.049-0.354-0.146l-2.121-2.122c-0.195-0.195-0.195-0.512,0-0.707 s0.512-0.195,0.707,0l2.121,2.122c0.195,0.195,0.195,0.512,0,0.707C65.898,33.431,65.771,33.479,65.643,33.479z"/><g><path fill="#181921" d="M82,71H31c-0.552,0-1-0.447-1-1s0.448-1,1-1h51c0.553,0,1,0.447,1,1S82.553,71,82,71z"/></g></svg>