<svg xmlns="http://www.w3.org/2000/svg"  viewBox="0 0 100 100" width="100px" height="100px"><path fill="#fbb97f" d="M69.961,81.961h-39c-6.6,0-12-5.4-12-12v-39c0-6.6,5.4-12,12-12h39c6.6,0,12,5.4,12,12v39C81.961,76.561,76.561,81.961,69.961,81.961z"/><path fill="#1f212b" d="M69.961,82.961h-39c-7.168,0-13-5.832-13-13v-39c0-7.168,5.832-13,13-13h39c7.168,0,13,5.832,13,13v39C82.961,77.129,77.129,82.961,69.961,82.961z M30.961,19.961c-6.065,0-11,4.935-11,11v39c0,6.065,4.935,11,11,11h39c6.065,0,11-4.935,11-11v-39c0-6.065-4.935-11-11-11H30.961z"/><path fill="#fbb97f" d="M77.461,48.461v18.663c0,5.685-4.652,10.337-10.337,10.337H33.798c-5.685,0-10.337-4.652-10.337-10.337V33.798c0-5.685,4.652-10.337,10.337-10.337h33.663"/><path fill="#1f212b" d="M67.124 77.961H33.798c-5.976 0-10.837-4.861-10.837-10.837V33.798c0-5.976 4.861-10.837 10.837-10.837h33.663c.276 0 .5.224.5.5s-.224.5-.5.5H33.798c-5.424 0-9.837 4.413-9.837 9.837v33.326c0 5.424 4.413 9.837 9.837 9.837h33.326c5.424 0 9.837-4.413 9.837-9.837V48.461c0-.276.224-.5.5-.5s.5.224.5.5v18.663C77.961 73.099 73.099 77.961 67.124 77.961zM77.461 45.961c-.276 0-.5-.224-.5-.5v-4c0-.276.224-.5.5-.5s.5.224.5.5v4C77.961 45.737 77.737 45.961 77.461 45.961zM77.461 39.961c-.276 0-.5-.224-.5-.5v-2c0-.276.224-.5.5-.5s.5.224.5.5v2C77.961 39.737 77.737 39.961 77.461 39.961z"/><path fill="#fdfcee" d="M61.225,56.62c2.329-1.886,3.753-4.355,3.753-7.067c0-5.909-6.706-10.699-14.978-10.699s-14.978,4.79-14.978,10.699c0,5.909,6.706,10.699,14.978,10.699c2.927,0,5.65-0.607,7.956-1.646c0.235-0.106,2.388,1.47,3.703,2.459c0.304,0.228,0.719-0.068,0.602-0.429C61.933,59.623,61.487,58.105,61.225,56.62z"/><path fill="#1f212b" d="M61.893,61.645c-0.188,0-0.376-0.06-0.535-0.18c-2.332-1.755-3.116-2.214-3.355-2.333c-2.416,1.06-5.179,1.62-8.002,1.62c-8.535,0-15.479-5.024-15.479-11.199c0-6.175,6.944-11.199,15.479-11.199s15.479,5.024,15.479,11.199c0,2.667-1.314,5.236-3.708,7.265c0.262,1.365,0.665,2.732,0.967,3.665c0.12,0.371-0.013,0.771-0.329,0.997C62.253,61.59,62.073,61.645,61.893,61.645z M61.786,60.79h0.01H61.786z M57.976,58.091c0.334,0,1.042,0.374,3.703,2.365c-0.317-1.011-0.707-2.391-0.946-3.748c-0.032-0.179,0.036-0.361,0.178-0.476c2.301-1.863,3.568-4.235,3.568-6.678c0-5.624-6.495-10.199-14.479-10.199s-14.479,4.575-14.479,10.199c0,5.624,6.495,10.199,14.479,10.199c2.745,0,5.425-0.554,7.75-1.602C57.82,58.119,57.883,58.091,57.976,58.091z"/></svg>